<svg width="124" height="30" viewBox="0 0 124 30" fill="none" xmlns="http://www.w3.org/2000/svg">
<path fill-rule="evenodd" clip-rule="evenodd" d="M16.2853 24.9658C16.12 24.8005 15.872 24.6351 15.5413 24.6351C15.2933 24.6351 15.0453 24.7178 14.7973 24.9658C14.632 25.1311 14.4667 25.3791 14.4667 25.7098C14.4667 25.9578 14.5493 26.2058 14.7973 26.4538C14.9627 26.6191 15.2107 26.7845 15.5413 26.7845C15.7893 26.7845 16.0373 26.7018 16.2853 26.4538C16.4507 26.2885 16.616 26.0405 16.616 25.7098C16.616 25.3791 16.4507 25.1311 16.2853 24.9658ZM16.5333 22.9818C16.9467 23.1471 17.2773 23.3951 17.608 23.6431C18.104 24.1391 18.4347 24.8831 18.4347 25.6271C18.4347 26.3711 18.104 27.1151 17.608 27.6111C17.112 28.1071 16.368 28.4378 15.624 28.4378C14.88 28.4378 14.136 28.1071 13.64 27.6111C13.144 27.1151 12.8133 26.3711 12.8133 25.6271C12.8133 24.8831 13.144 24.1391 13.64 23.6431C13.9707 23.3125 14.3013 23.1471 14.7147 22.9818V18.2698C14.7147 18.1045 14.632 17.9391 14.5493 17.8565C14.4667 17.7738 14.3013 17.6911 14.0533 17.6911H12.0693C12.152 18.0218 12.2347 18.3525 12.2347 18.6831V21.6591C12.2347 22.1551 11.8213 22.5685 11.3253 22.5685H7.83011C7.6947 23.0426 7.4387 23.4799 7.11015 23.8085C6.61415 24.3045 5.87015 24.6351 5.12615 24.6351C4.38215 24.6351 3.63815 24.3045 3.14215 23.8085C2.64615 23.3125 2.31549 22.5685 2.31549 21.8245C2.31549 21.0805 2.64615 20.3365 3.14215 19.8405C3.63815 19.3445 4.38215 19.0138 5.12615 19.0138C5.87015 19.0138 6.61415 19.3445 7.11015 19.8405C7.36066 20.091 7.56899 20.4047 7.71385 20.7498H10.416V18.6831C10.416 18.4351 10.3333 18.1871 10.168 18.0218C10.0027 17.8565 9.75467 17.7738 9.50667 17.7738H4.96H4.87733C3.80267 17.6911 2.976 17.4431 2.39733 17.0298C1.40533 16.5338 0.826667 15.7898 0.578667 15.2938V15.2111C0.165333 14.5498 0 13.8058 0 13.0618C0 12.3178 0.248 11.4911 0.661333 10.8298C1.07467 10.0858 1.65333 9.50715 2.39733 9.17648C2.89333 8.92848 3.472 8.68048 4.05067 8.59781C4.05067 8.51515 4.05067 8.43248 4.13333 8.26715C4.13333 7.93648 4.216 7.52315 4.38133 7.19248C4.87733 5.95248 5.704 4.87782 6.77867 4.13382C7.85333 3.38982 9.09333 2.97648 10.4987 2.97648H10.9947C11.16 2.97648 11.3253 2.97648 11.408 3.05915C11.6147 3.10048 11.8007 3.14181 11.9867 3.18315C12.1727 3.22448 12.3587 3.26581 12.5653 3.30715L12.7307 3.38982C12.772 3.34848 12.7927 3.30715 12.8133 3.26582C12.834 3.22448 12.8547 3.18315 12.896 3.14181C13.144 2.81115 13.392 2.48048 13.7227 2.14981C14.0533 1.81915 14.4667 1.57115 14.9627 1.32315C15.4587 1.07515 15.9547 0.909815 16.368 0.909815C16.5333 0.909815 16.616 0.909815 16.7813 0.827148H17.112C18.2693 0.827148 19.344 1.24048 20.2533 1.90182C20.9147 2.39782 21.4107 3.05915 21.7413 3.80315H22.072H22.568C22.6507 3.80315 22.7333 3.82381 22.816 3.84448C22.8987 3.86515 22.9813 3.88581 23.064 3.88581C23.9733 4.13381 24.7173 4.62982 25.2133 5.29115C25.544 5.70448 25.8747 6.28315 26.04 6.77915H26.2053C28.1067 6.77915 29.6773 7.44048 30.8347 8.43248C32.1573 9.58982 32.8187 11.1605 32.8187 12.6485C32.8187 13.8885 32.3227 15.2111 31.248 16.1205C30.3387 16.9471 29.0987 17.4431 27.4453 17.6085H27.3627H20.7493C20.5013 17.6085 20.2533 17.6911 20.088 17.8565C19.9227 18.0218 19.84 18.2698 19.84 18.5178V20.5845H22.5342C22.6724 20.3046 22.8526 20.0503 23.0625 19.8405C23.5585 19.3445 24.3025 19.0138 25.0465 19.0138C25.7905 19.0138 26.5345 19.3445 27.0305 19.8405C27.5265 20.3365 27.8572 21.0805 27.8572 21.8245C27.8572 22.5685 27.5265 23.3125 27.0305 23.8085C26.5345 24.3045 25.7905 24.6351 25.0465 24.6351C24.3025 24.6351 23.5585 24.3045 23.0625 23.8085C22.734 23.4799 22.478 23.0426 22.3425 22.5685H18.9307C18.4347 22.5685 18.0213 22.1551 18.0213 21.6591V18.6831C18.0213 17.9391 18.352 17.1951 18.848 16.6991C19.344 16.2031 20.0053 15.8725 20.832 15.8725H27.28C28.4373 15.7898 29.3467 15.3765 29.9253 14.8805C30.5867 14.3018 30.9173 13.4751 30.9173 12.7311C30.9173 11.6565 30.4213 10.5818 29.512 9.83781C28.6853 9.09381 27.528 8.68048 26.04 8.68048H25.6267H25.2133H25.1307C24.6347 8.68048 24.2213 8.34981 24.2213 7.85382C24.2213 7.35781 23.9733 6.86181 23.6427 6.44848C23.312 6.03515 22.8987 5.78715 22.4027 5.70448C22.32 5.70448 22.2373 5.70448 22.1547 5.62182H21.9067H21.576C21.4933 5.62182 21.328 5.62182 21.2453 5.70448H21.1627C20.6667 5.78715 20.1707 5.53915 20.088 5.04315C19.9227 4.38181 19.5093 3.80315 19.0133 3.30715C18.4347 2.89382 17.7733 2.64582 17.0293 2.64582H16.7813H16.5333C16.3535 2.64582 16.1302 2.73274 15.9265 2.81205C15.8493 2.84211 15.7748 2.87109 15.7067 2.89382C15.2933 3.14182 15.0453 3.30715 14.88 3.47248C14.7147 3.63781 14.5493 3.88582 14.384 4.13382C14.2187 4.38181 14.136 4.62982 14.0533 4.87782C14.0533 4.91915 14.0327 4.93982 14.012 4.96048C13.9913 4.98115 13.9707 5.00181 13.9707 5.04315C13.7227 5.45648 13.144 5.62182 12.7307 5.37382C12.4827 5.20848 12.2347 5.12581 11.9867 5.04315C11.7387 4.96048 11.4907 4.87782 11.16 4.87782H10.8293H10.4987C9.50667 4.87782 8.59733 5.20848 7.85333 5.70448C7.02667 6.20048 6.36533 6.94448 6.03467 7.77115L6.03466 7.77116C5.952 8.01915 5.86933 8.26715 5.78667 8.59781C5.704 8.84581 5.704 9.17648 5.704 9.42448C5.704 9.92048 5.29067 10.3338 4.79467 10.3338H4.712H4.62933C4.05067 10.3338 3.55467 10.4991 3.14133 10.6645C2.728 10.9125 2.39733 11.2431 2.14933 11.6565C1.90133 12.0698 1.736 12.5658 1.736 13.0618C1.736 13.4751 1.81867 13.9711 2.06667 14.3018C2.232 14.6325 2.56267 15.0458 3.14133 15.2938C3.55467 15.5418 4.13333 15.7071 4.96 15.7898H9.34133H14.0533C14.7147 15.7898 15.376 16.0378 15.7893 16.4511C16.2853 16.8645 16.5333 17.5258 16.5333 18.1871V22.9818ZM25.7078 21.1631C25.5425 20.9978 25.2945 20.8325 24.9638 20.8325C24.7158 20.8325 24.4678 20.9151 24.2198 21.1631C24.0545 21.3285 23.8892 21.5765 23.8892 21.9071C23.8892 22.1551 23.9718 22.4031 24.2198 22.6511C24.3852 22.8165 24.6332 22.9818 24.9638 22.9818C25.2118 22.9818 25.4598 22.8991 25.7078 22.6511C25.8732 22.4858 26.0385 22.2378 26.0385 21.9071C26.0385 21.5765 25.9558 21.3285 25.7078 21.1631ZM5.12615 20.8325C5.45682 20.8325 5.70482 20.9978 5.87015 21.1631C6.23072 21.5237 6.33647 22.1549 5.99041 22.5294C5.97793 22.5429 5.96537 22.5559 5.95282 22.5685C5.70482 22.8165 5.53949 22.8991 5.20882 22.8991C4.87815 22.8991 4.63015 22.7338 4.46482 22.5685C4.21682 22.3205 4.13415 22.0725 4.13415 21.8245C4.13415 21.5765 4.21682 21.3285 4.38215 21.1631C4.63015 20.9151 4.79549 20.8325 5.12615 20.8325Z" fill="#236BF5"/>
<path d="M79.3605 9.83784H76.9631L74.7311 17.3605H74.6485L72.4165 9.83784H70.0191L73.4085 19.5098H75.8885L79.3605 9.83784ZM67.2911 16.6165C67.0431 17.4432 66.2165 17.9392 65.2245 17.9392C63.7365 17.9392 62.8271 16.8645 62.8271 15.3765V15.2112H69.6058V14.4672C69.6058 11.5738 67.8698 9.58984 65.1418 9.58984C62.3311 9.58984 60.5951 11.5738 60.5951 14.6325C60.5951 17.6912 62.3311 19.5925 65.2245 19.5925C67.5391 19.5925 69.1925 18.3525 69.5231 16.5338H67.2911V16.6165ZM65.0591 11.4085C66.3818 11.4085 67.2085 12.4005 67.2911 13.7232H62.8271C62.9098 12.4005 63.8191 11.4085 65.0591 11.4085ZM57.2885 16.6165C57.0405 17.4432 56.2138 17.9392 55.2218 17.9392C53.7338 17.9392 52.8245 16.8645 52.8245 15.3765V15.2112H59.6031V14.4672C59.6031 11.5738 57.8671 9.58984 55.1391 9.58984C52.3285 9.58984 50.5925 11.5738 50.5925 14.6325C50.5925 17.6912 52.3285 19.5925 55.2218 19.5925C57.5365 19.5925 59.1898 18.3525 59.5205 16.5338H57.2885V16.6165ZM55.0565 11.4085C56.3791 11.4085 57.2058 12.4005 57.2885 13.7232H52.7418C52.8245 12.4005 53.7338 11.4085 55.0565 11.4085ZM40.4245 19.5098H42.6565V13.8885C42.6565 12.4832 43.4831 11.5738 44.8058 11.5738C46.1285 11.5738 46.7071 12.3178 46.7071 13.7232V19.5098H48.9391V13.3098C48.9391 11.0778 47.6991 9.67251 45.6325 9.67251C44.1445 9.67251 43.1525 10.3338 42.5738 11.4912H42.4911V9.83784H40.3418V19.5098H40.4245Z" fill="#0D1115"/>
<path d="M119.369 11.5732C120.774 11.5732 121.766 12.8132 121.766 14.7146C121.766 16.6159 120.857 17.8559 119.369 17.8559C117.881 17.8559 116.972 16.6159 116.972 14.7146C116.972 12.8132 117.881 11.5732 119.369 11.5732ZM118.708 19.6746C120.113 19.6746 121.27 18.9306 121.766 17.8559V19.5092H123.998V6.36523H121.766V11.4906H121.684C121.188 10.4159 120.113 9.6719 118.708 9.6719C116.31 9.6719 114.74 11.5732 114.74 14.6319C114.657 17.7732 116.228 19.6746 118.708 19.6746ZM113.252 9.83723H111.02V15.3759C111.02 16.7812 110.193 17.6906 108.87 17.6906C107.63 17.6906 106.886 16.9466 106.886 15.5412V9.75457H104.654V15.9546C104.654 18.1866 105.977 19.5092 108.044 19.5092C109.532 19.5092 110.524 18.8479 111.02 17.6906H111.102V19.3439H113.252V9.83723ZM98.5371 17.9386C97.1318 17.9386 96.1398 16.7812 96.1398 14.7146C96.1398 12.6479 97.0491 11.4906 98.5371 11.4906C99.9425 11.4906 100.934 12.6479 100.934 14.7146C100.934 16.7812 100.025 17.9386 98.5371 17.9386ZM98.5371 19.6746C101.348 19.6746 103.249 17.7732 103.249 14.6319C103.249 11.4906 101.43 9.58923 98.5371 9.58923C95.7265 9.58923 93.8251 11.4906 93.8251 14.6319C93.9078 17.8559 95.7265 19.6746 98.5371 19.6746ZM90.1051 19.5092H92.3371V6.36523H90.1051V19.5092ZM88.6171 13.3092C88.4518 11.2426 86.8811 9.6719 84.3185 9.6719C81.5081 9.6719 79.6895 11.5732 79.6895 14.7146C79.6895 17.8559 81.5081 19.7572 84.3185 19.7572C86.7158 19.7572 88.3691 18.3519 88.6171 16.2026H86.4678C86.2198 17.2772 85.4758 17.9386 84.4011 17.9386C82.9958 17.9386 82.0041 16.7812 82.0041 14.7146C82.0041 12.7306 82.9131 11.4906 84.3185 11.4906C85.5585 11.4906 86.2198 12.2346 86.4678 13.3092H88.6171Z" fill="#0D1115"/>
</svg>
